# xmcd
#
# Track frame offsets: 
#        150
#        12363
#        26519
#        38527
#        52915
#        67495
#        79687
#        93370
#        106667
#        119876
#        134278
#        148259
#        161078
#        173043
#        183713
#        196598
#        210397
#        225231
#        237359
#        250054
#        262563
#        278231
#        291642
#        309245
#
# Disc length: 4315 seconds
#
# Revision: 1
# Processed by: cddbd v1.5.2PL0 Copyright (c) Steve Scherf et al.
# Submitted via: ExactAudioCopy v0.99pb5
#
DISCID=4c10d918
DTITLE=Bing Crosby - Bing With A Swing!
DYEAR=2009
DGENRE=Jazz
TTITLE0=The Dixieland Band - With Bobby Haggart And His Orchestra
TTITLE1=Jamboree Jones - With Bobby Haggart And His Orchestra
TTITLE2=Be Honest With Me - With The John Scott Trotter Eight
TTITLE3=Yes Indeed - With Bob Crosby's Bob Cats
TTITLE4=I'm Thinking Tonight Of My Blue Eyes - With Woody Hermans Wood
TTITLE4=choppers
TTITLE5=Deep In The Heart Of Texas - With Woody Hermans Woodchoppers
TTITLE6=You Sang My Love Song To Somebody Else - With Bobby Haggart An
TTITLE6=d His Orchestra
TTITLE7=Sweet Lorraine - With Jimmy Dorsey And His Orchestra
TTITLE8=My Baby Said Yes - With Louis Jordan And His Orchestra
TTITLE9=After You've Gone  - With Eddie Condon And His Orchestra
TTITLE10=Blue  - With Eddie Condon And His Orchestra
TTITLE11=You Gotta Show Me - With Tommy Dorsey And His Orchestra
TTITLE12=Goodbye My  Lover, Goodbye - With Bobby Haggart And His Orche
TTITLE12=stra
TTITLE13=That's A Plenty - With John Scott Trotter And His Ochestra
TTITLE14=Let A Smile Be Your Umbrella - With Bob Scobey And His Frisco
TTITLE14=Jazz Band
TTITLE15=I'm Goin To Sit Right Down And Write Myself A Letter - With B
TTITLE15=ob Scobey And His Frisco Jazz Band
TTITLE16=Exactly Like You - With Bob Scobey And His Frisco Jazz Band
TTITLE17=Dream A Little Dream Of Me  - With Bob Scobey And His Frisco 
TTITLE17=Jazz Band
TTITLE18=Last Night On The Back Porch  - With Bob Scobey And His Frisc
TTITLE18=o Jazz Band
TTITLE19=Some Sunny Day -  With Bob Scobey And His Frisco Jazz Band
TTITLE20=Whispering  - With Bob Scobey And His Frisco Jazz Band
TTITLE21=Tell Me - With Bob Scobey And His Frisco Jazz Band
TTITLE22=Mack The Knife - With Bob Scobey And His Frisco Jazz Band
TTITLE23=Momma Loves Papa  - With Bob Scobey And His Frisco Jazz Band
EXTD=
EXTT0=
EXTT1=
EXTT2=
EXTT3=
EXTT4=
EXTT5=
EXTT6=
EXTT7=
EXTT8=
EXTT9=
EXTT10=
EXTT11=
EXTT12=
EXTT13=
EXTT14=
EXTT15=
EXTT16=
EXTT17=
EXTT18=
EXTT19=
EXTT20=
EXTT21=
EXTT22=
EXTT23=
PLAYORDER=
